<?xml version="1.0" encoding="utf-8"?>
<!-- Generator: Adobe Illustrator 21.1.0, SVG Export Plug-In . SVG Version: 6.00 Build 0)  -->
<svg version="1.1" id="Layer_1" xmlns="http://www.w3.org/2000/svg" xmlns:xlink="http://www.w3.org/1999/xlink" x="0px" y="0px"
	 width="1640px" height="520px" viewBox="0 0 1640 520" enable-background="new 0 0 1640 520" xml:space="preserve">
<g transform="translate(0.000000,520.000000) scale(0.100000,-0.100000)">
	<path fill="#3300FF" d="M6450,5024c-474-17-810-47-1468-128c-1060-132-1419-208-2527-536c-956-283-1098-314-1445-315H815l-162,43
		c-89,23-180,42-201,42c-45,0-52-10-52-69c0-43,48-124,122-206c25-27,50-60,56-72c25-47,13-91-100-361c-105-250-116-272-174-339
		c-102-117-98-96-90-413c16-680,37-1031,64-1110c58-167,146-262,327-350c228-112,628-180,1064-180h114l-7,33c-40,194-53,493-27,652
		c42,269,145,498,314,695c213,251,574,462,917,536c118,26,381,26,498,1c308-67,600-238,836-488c383-407,479-912,290-1532
		c-15-48-25-89-23-91c6-7,7499-59,7505-53c3,3-10,45-30,94c-178,446-149,932,81,1328c218,376,571,630,1003,722c122,26,449,25,570-1
		c297-64,559-206,770-416s339-457,402-772c31-158,31-387,0-543c-21-108-69-263-110-357l-21-47l42-6c23-3,278-5,567-3
		c405,2,532,6,555,16c78,34,108,97,120,247c4,59,20,123,60,240c93,275,106,356,85,516c-12,89-11,112,6,227c27,181,25,368-5,444
		c-45,116-146,198-412,337c-581,302-1212,514-1949,655c-797,152-1141,188-2200,236c-245,11-458,23-474,26c-15,3-114,56-220,116
		c-585,336-1284,630-2006,842c-602,178-1086,274-1615,321C7139,5020,6639,5031,6450,5024z M7230,4745c647-59,1229-180,1868-386
		c244-80,668-239,857-324l60-27l-37-19c-49-25-94-82-107-135c-6-23-11-77-11-118v-76h-50c-258,0-3981,205-4022,221
		c-43,17-53,35-137,230c-44,101-116,267-160,369c-71,165-78,186-62,192c47,17,519,71,766,88C6393,4773,7026,4764,7230,4745z
		 M5409,4250c88-200,159-365,158-366c-5-5-636,56-739,71c-258,37-425,131-543,304c-81,119-73,177,33,230c137,69,318,108,657,141
		c116,12,215,23,220,24C5221,4663,5260,4588,5409,4250z M795,3625c132-94,291-166,435-195c66-13,131-55,144-93c13-35-11-67-90-124
		c-119-85-125-86-502-91l-333-4l14,34c39,91,220,505,229,521C702,3693,698,3695,795,3625z M15092,2875c161-34,479-156,656-252
		c132-72,262-169,262-196c0-18-201,1-297,27c-211,58-462,169-619,274c-86,58-164,130-164,152C14930,2895,15008,2892,15092,2875z"/>
	<path d="M3016,2725c-538-88-957-495-1063-1033c-23-118-23-356,0-474c79-399,335-737,695-917c288-144,667-169,980-65
		c446,148,782,543,857,1007c67,412-68,833-360,1122c-180,179-395,295-648,350C3374,2738,3127,2743,3016,2725z M3452,2421
		c357-93,634-366,729-721c20-72,23-110,23-245s-3-173-23-245c-97-361-380-636-749-727c-105-26-332-24-447,5c-279,69-527,269-655,527
		c-76,152-103,268-103,440c0,119,4,155,27,240c100,383,406,666,799,741C3152,2455,3351,2447,3452,2421z"/>
	<path d="M13216,2725c-538-88-957-495-1063-1033c-11-59-17-136-17-237c0-226,37-385,135-581c118-238,334-452,577-573
		c288-144,667-169,980-65c446,148,782,543,857,1007c67,412-68,833-360,1122c-180,179-395,295-648,350
		C13574,2738,13327,2743,13216,2725z M13652,2421c357-93,634-366,729-721c20-71,23-110,23-245c1-137-3-172-22-245
		c-99-362-382-636-750-727c-105-26-332-24-447,5c-279,69-527,269-655,527c-76,152-103,268-103,440c0,118,4,155,26,236
		c103,390,402,669,800,745C13352,2455,13551,2447,13652,2421z"/>
</g>
</svg>
