<?xml version="1.0" encoding="utf-8"?>
<!-- Generator: Adobe Illustrator 21.1.0, SVG Export Plug-In . SVG Version: 6.00 Build 0)  -->
<svg version="1.1" id="Layer_1" xmlns="http://www.w3.org/2000/svg" xmlns:xlink="http://www.w3.org/1999/xlink" x="0px" y="0px"
	 width="1000px" height="500px" viewBox="0 0 1000 500" enable-background="new 0 0 1000 500" xml:space="preserve">
<path d="M990,321.7v52.5c0,19.3-15.7,35-35,35h-36.6c1-5.7,1.6-11.5,1.6-17.5c0-58-47-105-105-105s-105,47-105,105
	c0,6,0.6,11.8,1.6,17.5H253.4c1-5.7,1.6-11.5,1.6-17.5c0-58-47-105-105-105s-105,47-105,105c0,6,0.6,11.8,1.6,17.5H45
	c-19.3,0-35-15.7-35-35v-52.5c0-3.2,0.6-6.2,1.4-9.2c7.4-47.8,21-93.5,28.4-106.1c3.1-5.3,5.2-7.8,5.2-7.8
	c1.1-5.6,63-109.9,70.5-118.9c23.6-43.3,121.1-38.1,121.1-38.1S511.7,42,559.1,42c38.7,3,41.9,11.1,57.4,23.1
	c6.4,4.8,144.2,133.9,151.5,134c115.1,1,142.2,17,142.2,17C994.3,261.6,990,321.7,990,321.7z M325,94.2c0,0-64.5,0-105,0
	s-52.5,35-52.5,35L148,173l177,8.7V94.2z M587.5,124.8c0,0-24.6-30.6-42.1-30.6S360,94.8,360,94.8v87l191.9,12.6v-24.6
	c0,0,6.1-15.5,20.5-12.5c11.9,2.4,24.9,16,36.1,40.9l51.6,3.4L587.5,124.8z M150,321.7c38.7,0,70,31.3,70,70s-31.3,70-70,70
	s-70-31.3-70-70C80,353,111.3,321.7,150,321.7z M815,321.7c38.7,0,70,31.3,70,70s-31.3,70-70,70s-70-31.3-70-70
	C745,353,776.3,321.7,815,321.7z"/>
</svg>
