<?xml version="1.0" encoding="utf-8"?>
<!-- Generator: Adobe Illustrator 21.1.0, SVG Export Plug-In . SVG Version: 6.00 Build 0)  -->
<svg version="1.1" id="Layer_1" xmlns="http://www.w3.org/2000/svg" xmlns:xlink="http://www.w3.org/1999/xlink" x="0px" y="0px"
	 width="900px" height="900px" viewBox="0 0 900 900" enable-background="new 0 0 900 900" xml:space="preserve">
<path fill="#curent" d="M546.1,796.9c-9.7,4.6-11.5,2.4-98.7,6c-24,1-23,1.1-35.9,1.5c-57.3,1.7-86.1,2.5-97.2-4.5
	c-28.6-18.1-11.5-51.3-41.9-77.7c-21.7-18.9-59.8-27.5-88.2-14.9c-47.3,20.9-34.9,85.8-83.7,103.1c-17.8,6.3-43.5,6.2-61.3-7.5
	c-11.6-8.9-16-20.7-19.4-29.9c-8.6-23.1-5.4-45.8,1-91.2c1.2-8.8,2.7-17.1,4.6-26.3c2.9-13.6,5.6-26.1,11.3-40.2
	c2.7-6.8,9.9-24,24.2-41.3c22.9-27.5,37-22.2,43.9-39.7c9.3-23.9-13.5-42.4-2.1-59.8c7.6-11.6,27.1-17.7,37.7-11.3
	c18.6,11.2-0.3,55,21.2,69.6c4,2.7,6.5,2.5,28.4,3.1c36.6,0.9,54.9,1.4,63.5,2.6c29.7,4.1,24.4,12.4,61.4,19.6
	c26,5.1,48.3,4.8,57.8,4.6c7.6-0.1,20.1-0.4,34.6-2.6c18.3-2.8,29.4-7.1,79.4-28.4c0,0,26.3-11.2,65-26.8
	c25.2-10.2,31.2-11.6,38.2-12.9c24.4-4.6,48.1-2.4,58.8-1.4c7.7,0.7,14.6,1.7,29.2,2.8c8.4,0.6,11.8,0.7,23.4,1.4
	c7.6,0.5,23.7,1.5,29.9,2.1c23.5,2.2,42.5,11.4,51.6,15.8c43.6,21.1,69.5,64.5,75.6,75.1c6.3,11.1,67.2,121.2,12,180.9
	c-29.2,31.6-85.8,44.6-118.1,23.9c-32.1-20.5-19.3-60.8-53.8-80.7c-27.2-15.7-66.2-8.5-91.2,7.5C568.2,744.3,582,779.7,546.1,796.9z
	 M444,615.8c2.6,0,4.7,0.1,6.9,0c11-0.5,19.8-5.4,26.6-13.8c2.3-2.8,3.9-6,2.7-10.3c-2.1-7.6-16.4-11-22.2-5.9
	c-6.2,5.4-13.2,5.7-20.7,2.7c-4.9-2-10.1-3.8-15.5-2.1c-5.4,1.7-9.6,5.3-10,11.1c-0.5,6.6,3.9,11,9.2,14
	C428.1,615.4,436.2,616.3,444,615.8z"/>
<g>
	<path fill="#30110B" d="M549,237.8c3.6-3.8,12.4-11,25.3-13.8c3.6-0.8,7.4-0.6,10.8,1.1c23.9,12.5,31.3,26.8,27.9,49.7
		c-0.6,3.8-0.9,7.6-1.3,11.4c-1.4,15.1-9.9,25-25,26.4c-20.7,1.9-36.9,12.3-52.5,24.5c-3.8,3-6.4,6.8-7.8,11.3
		c-1.6,5.1-3.4,10.1-6.6,14.5c-2.9,4-1.9,7.4,1.9,10.3c6.4,4.9,13.8,8.1,21,11.5c5.3,2.5,10.5,5,15.8,7.4
		c16.4,7.4,28.9,19.3,38.9,34.2c6.3,9.4,14.3,17.1,24,23c6.4,3.9,10.7,9.4,13,16.5c0.7,2.1,1.6,4,2.3,6.1c2,5.9,6.2,8.8,12.3,9.3
		c7.7,0.7,15.3-0.4,22.9-1.5c19.1-2.8,37.5,1.1,55.9,5.1c25.6,5.5,50.6,12.9,73.5,26.1c5.1,2.9,26,16.1,46.3,40.1
		c13.8,16.3,59.3,75.4,49.8,154.3c-0.9,7.5-10.8,89.8-51.6,101.3c-17.4,4.9-69.2,5.1-83.2,3.2c-1.5-0.2-6.4-0.9-11.1,1.6
		c-3.2,1.7-5.6,4.7-7.8,9.2c-6.5,13.4-15,25.6-27.3,34.6c-16.1,11.9-34.8,16.4-54.4,17.3c-24.1,1.1-46.8-5.2-69.1-13.4
		c-9.5-3.5-16.3-10.1-22.1-18.1c-5.4-7.4-11-14.7-14.1-23.4c-1.1-3.1-3.4-2.1-5.3-2.1c-25.8,1.1-51.6,2.3-77.4,3.4
		c-49.3,2-98.6,3.2-147.9,2.6c-3.6,0-5.3,1.1-7.3,4.1c-9.1,13.3-18.3,26.6-29.6,38.3c-11.2,11.6-25.8,16.4-40.9,19.3
		c-29.7,5.7-58.7,2-86.5-9.7c-11.9-5-20.8-13.6-28.5-23.7c-2.7-3.6-5.9-6.9-8-10.8c-7.4-13.7-20.1-16.4-33.8-17.1
		c-8.8-0.4-17.6,1.5-26.4,2c-16.2,0.9-31.8-2.4-47-7.7c-1.9-0.7-3-1.6-3.6-3.6C2.1,766.4-3.7,719.8,7.3,672.8
		c9.1-38.6,25.4-74.2,49.5-106c5.3-7,11.4-13.4,18.1-19.3c6.2-5.4,12.8-10,20.7-12.7c5.7-1.9,7.2-4.9,6.1-10.8
		c-2.5-14.1-6.7-27.8-7.9-42.2c-1.3-16.3,7.6-28.5,23.5-32.1c3.7-0.8,7.6-1.2,11.3-1.8c10.3-1.4,13.1-5.2,11.1-15.6
		c-1.6-8.3-3.8-16.6-5-24.9c-5-35.3-14.7-69.7-21.1-104.7c-2.5-13.6-2-27.2-1-40.8c1.5-19.2,0.1-37.9-9-55.4
		c-5.2-10-12.7-18.2-19.8-26.9c-13.2-16.1-26.1-32.5-34.4-51.9c-4.9-11.4-3.8-15.5,5.1-24.3c9.5-9.4,21.1-14.4,34.2-15.7
		c11.5-1.1,23-0.3,34.1,3c17.4,5.3,35.3,8.3,52.8,13.1c10.6,2.9,19.2,8.9,26.3,17.2c0.9,2.3,1.7,4.7,2.8,6.9
		c1.6,3.1,0.7,5.5-1.9,7.3c-2.6,1.8-5.4,1.8-7.8-0.4c-1.7-1.5-3.5-3.1-4.9-4.9c-8-10.2-18.5-16.6-30.9-20.1
		c-18.3-5.1-37.2-5.5-56-5.5c-10.8,0-21.2,2.6-29.2,10.8c-5.8,6-6.7,10.1-2.9,17.5c6.4,12.1,14.2,23.3,22.4,34.2
		c4,5.3,7.9,10.6,10.5,16.9c2.2,5.4,5.5,9.9,12.1,10.6c3.6,0.4,6.2,2.7,7.7,5.8c4.4,9.4,12.7,11.6,21.9,11.9
		c5.8,0.2,11.7-0.1,17.5-0.2c2.4,0,4.6,0.2,5.7,2.9c3.9,9.8,0.2,15.7-10.4,15.9c-5.3,0.1-10.7-0.3-16,0.1
		c-12.8,0.9-17.8,7.2-17.3,20c1.2,29.7,5.7,59,10.7,88.2c2.3,13.6,4.4,27.3,8.8,40.4c6.5,19.4,18.5,31.8,40.1,33.3
		c21.5,1.5,42.9,1.8,64.4,1.7c31.5-0.3,62.8-4.1,94.2-6.9c16.3-1.4,32.5-3.3,48.7-4.9c24.2-2.5,46-12.8,68.5-21.1
		c19.5-7.2,39.3-13.8,53-31c1.7-2.1,3.9-4,3.1-6.9c-0.8-2.8-3.4-3.4-5.9-3.9c-2.9-0.6-5.6-0.1-8.3,0.9c-5.1,2-10.3,3.9-15.3,6
		c-19,8.1-38.2,15.8-59.2,16.8c-15.1,0.7-30.3,1.7-45.3-1.5c-8.3-1.7-14.6-6.5-18.1-14.3c-2.4-5.4,0.3-8.9,6.2-8.4
		c3.8,0.4,7.4,1.8,11,3.2c13.6,5.1,27.6,5.5,41.8,3.9c9.2-1.1,18.4-3.5,27.8-2.2c5.2,0.8,10.3,0.5,15.4-0.7
		c22.5-5.6,44-14.2,64.8-24.3c6.2-3,11.4-7.5,16-12.6c1.8-2,2.2-3.5,0.6-6c-2.6-4.1-4.7-8.4-6.8-12.8c-3.5-7.3-6.2-17.8-5-26.4
		C538.6,248.9,545.9,241.1,549,237.8z M839.7,571.1c-0.3-0.9-0.4-1.9-0.8-2.7c-5.1-9.1-11.8-17-19.1-24.3c-17-17-37.9-28-60.2-36
		c-15.3-5.5-31.5-8.6-47.7-10.1c-21.8-2-43.8-3.2-65.7-4.1c-19.4-0.8-38.8-0.1-58.1,3.3c-13.2,2.4-26.1,5.3-38.7,9.8
		c-22.6,8.1-43.5,19.8-64.1,32.1c-24.4,14.5-50.3,24.1-78.7,26.1c-12.9,0.9-25.9,1.9-38.8,2.9c-21.9,1.7-43-0.9-63.2-9.1
		c-21.7-8.9-44.3-13.9-67.4-17c-15.8-2.2-31.7-3.5-47.6-4.1c-26.9-1-53.5,1-79.5,9.4c-20.4,6.6-35.9,19.4-48.7,36
		c-9.2,12-16.1,25.3-21.2,39.6c-4.9,13.5-8.9,27.2-11.5,41.4c-0.9,5-0.7,10.3-2.2,15.1c-1.9,5.9-1.1,11.9-1.6,17.8
		c-0.2,2,0.5,2.4,2.7,1.6c9-3.4,12.8-10.3,13.5-19.4c1-13.5,5.2-18.5,17.9-21.7c4-1,6.7-3.1,8.5-7.3c4.6-11.1,12.1-20.3,22.2-27
		c19.2-12.7,39.6-22.9,61.5-30.3c11-3.8,22.4-6.3,33.8-6.9c24-1.4,48.1-1,72,3.1c16.1,2.7,31.1,7.4,45.1,15.7
		c22.1,13.1,40.1,30.7,55.7,50.9c19.8,25.6,29.2,55,31,86.9c0.9,14.9,2.7,29.9,2.4,44.9c-0.1,3.3,1.2,5.1,4.5,5.1
		c5.5,0,11,0.1,16.5-0.1c19.6-0.8,38.9-4.6,58.5-4.7c3.4,0,4.6-1,4.8-4.5c0.7-14.1,1.5-28.1,3.4-42.1c2.1-14.9,5.3-29.6,10.9-43.5
		c11.2-27.9,27.7-52.3,51.2-71.7c20.7-17.1,43.4-30.4,69-38.9c18.4-6.1,37-9.6,56.4-9.7c9.5,0,19.1-0.7,28.5,0.8
		c12.4,1.9,24.8,3.5,36.8,7.2c8,2.5,16.1,4.7,23.9,7.5c11.1,4,21.9,8.8,32.6,13.6c0.9,0.4,1.9,1.3,2.6,0.1c0.6-1,0.3-2.1-0.6-3.1
		c-2-2.4-3.8-5-5.6-7.5c-6.7-9.3-5.3-15.9,5.5-19c3.2-0.9,6.4-1.3,9.5-2.2c10.3-2.9,20.8-5,31.7-5.2
		C834.2,569.8,836.4,572.6,839.7,571.1z M378.3,554.4c35-0.7,67.4-11,98.7-25.9c3.8-1.8,4.7-5,4.9-8.6c0.4-7-0.1-14.1-2.1-20.8
		c-2.5-8.4-7.9-14.3-17.4-14.7c-5.3-0.3-10.7-0.5-16-0.4c-18.1,0.3-29.3-9.9-37.7-24.3c-1.6-2.7-3.3-6.3,0.1-9.1
		c3.7-3,7.5-2.5,10.9,0.6c3.4,3.2,6.5,6.6,9.8,10c1.3,1.3,2.6,3,4.6,2.4c3.8-1.2,6.2,0.8,8.9,3c8.9,7.1,18.7,10.7,30.2,7.1
		c7.7-2.5,15.6-3.3,23.7-3c6.5,0.3,12.2-1.8,16.4-6.9c4.1-5,9.2-8.6,14.9-11.5c5.3-2.7,10.5-5.8,15.9-8.4c2.3-1.1,2.9-2.3,1.8-4.6
		c-1.9-4-3.7-8.2-5.6-12.2c-8.3-17.5-19.1-33.1-34.1-45.7c-1.7-1.4-2.9-2.7-5.6-1.4c-15.2,7.2-30.9,13.2-46.8,18.6
		c-39,13.4-78.9,22.8-120.1,26.4c-52.5,4.7-104.9,2.3-157.2-1.6c-7.3-0.5-14.6-0.8-21.9,0.8c-2.2,0.5-3.5,0.9-2.7,3.9
		c2.3,7.9,2.6,16,2.8,24.2c0.4,24.2,3.1,48.2,5.1,72.3c0.3,3.1,1.3,4.6,4.6,5c13.8,1.6,27.6,2.3,41.3-0.5
		c10.5-2.2,18.3-7.5,21.9-18.2c1-3,2.4-5.9,3.6-8.8c5.9-13.7,19.2-15.4,28.3-3.4c2.8,3.7,5.1,7.8,7.5,11.8
		c5.4,9,11.9,16.8,21.4,21.8c9.3,5,19.1,8.5,29.3,11.2C337.6,548.3,357.3,554.8,378.3,554.4z M35.1,763.1c0,7.7,0.1,15.3,0,23
		c0,2.3,0.6,3.4,3.1,4c8.9,2.2,18,2.2,27,3.2c7.6,0.8,15.3-0.2,23,0.4c5.3,0.4,6.6-1.9,7-6.4c0.9-10.4,3.4-20.5,6.6-30.3
		c4.9-15,11.3-29.5,20.9-42.5c18.3-24.6,42.8-38,72.9-40.6c16.5-1.4,33.1-0.9,49.5,3.4c13.2,3.4,25.6,8.4,36.5,16.4
		c23.5,17,35.2,41.4,41.3,68.8c2.3,10.5,2.9,21.3,4,32c0.3,2.6,1.2,3.4,3.7,3.3c6.8-0.1,13.8-0.6,20.5,0.3
		c8.1,1.1,13.6-0.1,17.3-8.4c2.9-6.5,5.5-12.9,6.7-19.8c3.2-17.3,0.1-34.4-4.5-51c-4.3-15.8-11.3-30.5-20.6-44.2
		c-13.7-20.3-30.7-36.7-51.5-49.2c-18.5-11.2-38.5-18.8-60-22.3c-11.7-1.9-23.5-3.5-35.1-2.9c-19.1,0.9-38,4.2-56.1,11.2
		c-25.1,9.7-46.8,24-65,43.9c-2.7,3-2.3,4.8,0.5,7.1c4.3,3.7,7.5,8.1,9.7,13.3c3.2,7.7-1.2,19.3-8.9,22.5c-5,2.1-9.8-0.3-14.2-1.9
		c-10.2-3.6-15.7-2-22.3,6.8c-5.8,7.8-7.5,17-9.7,26C34.6,740.5,35,751.8,35.1,763.1z M796.3,779.8c6.9-0.5,13.9,0,20.8-1.6
		c6.2-1.4,7.9-2.5,8.1-9c0.2-8,0.4-16,0.4-24c0-7-1.9-8.5-8.8-7.3c-0.8,0.1-1.6,0.5-2.3,0.8c-5.9,1.6-11.6,3.8-17.6,4.7
		c-13.1,2.1-21.1-6-27.3-15.8c-7.5-11.9-10.4-25.3-10.7-39.5c-0.3-19.5,7.8-35,21.4-48c2.1-2,1.7-3,0.1-4.1
		c-7.8-5.4-15.6-10.7-23.5-15.8c-18.1-11.6-37.8-19.6-59.1-22.1c-18.2-2.1-36.7-2.5-55,1c-12.5,2.4-24.6,5.7-36.4,10.5
		c-19.4,7.8-36.8,18.9-52.3,32.7c-17.1,15.1-31,32.9-41.9,53.1c-13.2,24.4-19.9,50.4-20.8,78c-0.1,4.3,1.7,8.1,2,12.2
		c0.1,1.8,1.5,1.8,2.9,2.1c14.1,3.6,28,1.1,41.9-1.3c1.7-0.3,2.9-0.8,3.2-3c1.8-12.9,3.6-25.7,7.8-38.2
		c4.7-13.9,11.4-26.5,20.9-37.6c8.8-10.3,19.8-18,31.3-25.2c14.9-9.4,30.2-15.6,48.4-15.5c21.7,0.1,41.6,4.7,59.8,16.6
		c18.5,12.1,31.4,28.8,39.4,49.1c5.2,13.2,7.4,27.3,8.2,41.5c0.1,1.9,0,3.8,2.8,3.5C772.2,776.6,784.1,780.8,796.3,779.8z
		 M217.1,835c31.6,0,57-25,56.9-56.1c-0.1-30.7-25.7-56-56.7-56c-31.1-0.1-56.9,25.5-56.9,56.4C160.5,810.1,185.7,834.9,217.1,835z
		 M656.3,714.6c-31.4-0.1-56.9,25.1-56.9,56.2c0,30.3,25.8,55.8,56.4,55.8c31.5,0.1,57.2-25,57.4-55.9
		C713.2,739.8,687.8,714.7,656.3,714.6z M774,685.6c0,13.7,6.2,26.4,15.9,33.3c12,8.6,26.1,4.2,31.1-9.7
		c5.4-15.1-0.8-34.9-13.9-44.2c-11.2-7.9-24-4.9-29.9,7C775,676.6,773.9,681.4,774,685.6z M600.1,253.3c-4.8-10-12.4-14.9-24.5-15.7
		c-12.5-0.9-20,4.8-22.5,17.3c-0.9,4.6-1.1,9.3-0.8,13.9c0.9,15.6,12.7,28.6,27.4,30.4c12.5,1.5,24.1-10.8,22-23.5
		c-9.9,3.6-13.7,1.6-15-7.9c-0.1-0.7-0.2-1.3-0.3-2C584.4,252.7,587.2,250.1,600.1,253.3z M142.3,503.2c-1.2-8.4-0.6-17.4-2.7-26.3
		c-1.5-6-8.6-10.2-13.3-6.5c-8.3,6.6-15,14.8-14.6,26.1c0.3,7.5,2.5,14.9,4,22.3c0.4,1.9,2,3.1,4.1,3.9c6.9,2.5,13.4-0.2,20-1.3
		c1.7-0.3,1.5-2,1.6-3.3C141.7,513.2,142,508.4,142.3,503.2z M506.2,513.1c7.3-0.2,11-1,14.9-3.3c6.5-3.9,8.7-9.3,6.9-17
		c-1.9-8.1-7.3-13.7-14.1-14.1c-8.4-0.5-16.1,1.9-23.1,6.4c-5.2,3.3-5.5,6.8-1.3,11.3c2.8,3,5,6.2,4.6,10.6c-0.3,3.4,2,4.8,4.7,5.4
		C501.2,512.9,503.8,512.8,506.2,513.1z M540.4,405.1c9.8,10.4,15.1,21.5,17.2,34c0.2,1,0.8,1.8,1.2,2.7c1.4,3.3,3.2,5.1,7.2,3.2
		c2.4-1.2,5.2-0.7,7.9-0.6c4.6,0.2,9.3,0.4,14,0.5c2.5,0,3.8-0.9,2.3-3.7c-3.1-5.9-5.8-12-10-17.2
		C570.4,411.6,556.7,407.7,540.4,405.1z M810.7,609.5c6.7-1,14.7-2.5,22.8-3.4c6.3-0.7,12.6-1,18.7-2.7c2.3-0.7,4.3-1.6,4.2-4.7
		c-0.1-2.9-1.2-4.8-3.9-5.7c-2.2-0.7-4.4-1.2-6.9-0.7c-3.4,0.7-6.9,1.2-10.3,1.6c-9,1.1-18.1,1.9-27.1,3.3c-5.1,0.8-6.5,3.4-5.9,8.1
		C802.9,609.7,806,609.7,810.7,609.5z M832.8,639.5c5.4,0.4,11.1-0.8,16.8-2.1c5.2-1.2,10.2-3,14.7-5.9c3.8-2.5,3.7-5.2,0-7.7
		c-2.8-1.9-5.9-2-9.1-1.7c-6.3,0.6-12.5,1.1-18.8,1.9c-5.1,0.6-10.2,1.6-14.9,3.8c-2.3,1.1-4.4,2.5-4.3,5.5c0.2,3,2.5,4.1,4.8,5.1
		C825.3,639.8,828.9,639.6,832.8,639.5z M540.8,492.9c7.5,0,21.8-9.7,24.7-16.8c1.5-3.7,0-5.9-4.2-5.2c-10.3,1.8-18.4,7.4-24,16.3
		C535.1,490.8,536.6,493,540.8,492.9z M842.3,665.8c6,0.2,11.9-1,17.5-3c2.8-1,6.1-2.4,5.1-6.2c-1-3.7-4.5-2.8-7.1-2.4
		c-8.5,1.3-16.9,3.4-25.5,3.6c-1.7,0-3.4,0.4-3.9,2.4c-0.5,2.2,1,3.3,2.7,4.2C834.7,666,838.5,665.7,842.3,665.8z M623.1,473.3
		c-0.3-2.6-0.5-5.3-0.9-7.9c-0.3-2,0.5-4.5-2.5-5.3c-4.7-1.2-8.8,0.1-12.6,2.9c-2.6,1.9-0.7,3.8-0.2,5.7c0.7,2.4,1.5,4.7,2.2,7.1
		c0.8,2.4,0.6,5.5,4.8,4.6C619.8,479.3,623.2,476.9,623.1,473.3z M858.2,690.8c-2.1-0.1-5.5,0-8.5,1.6c-1.7,0.9-3.5,2.1-3.4,4.5
		c0.2,2.1,1.7,3.3,3.4,3.8c6.5,1.9,12.8,1.2,18.6-2.2c1.5-0.8,2.4-2.4,2.1-4.2c-0.3-1.6-1.8-2.2-3.3-2.7
		C864.7,690.8,862,690.9,858.2,690.8z M858.2,734.6c2.8,0,6.1-0.4,6.3-3.5c0.3-3.2-3-4-5.7-4c-2.5,0-5.9,0.1-6.2,3.5
		C852.4,734,855.5,734.4,858.2,734.6z"/>
	<path fill="#FCAE97" d="M549,237.8c-2.7,3.7-5.7,7.3-8,11.4c-7.1,12.9-5.3,25.7,0.8,38.3c2.1,4.3,4.2,8.7,6.8,12.8
		c1.6,2.5,1.3,4-0.6,6c-4.6,5.2-9.8,9.7-16,12.6c-20.8,10.1-42.3,18.7-64.8,24.3c-5,1.2-10.1,1.5-15.4,0.7
		c-9.4-1.4-18.6,1.1-27.8,2.2c-14.2,1.7-28.2,1.2-41.8-3.9c-3.6-1.3-7.2-2.8-11-3.2c-5.9-0.6-8.6,2.9-6.2,8.4
		c3.5,7.9,9.7,12.6,18.1,14.3c15,3.1,30.2,2.2,45.3,1.5c21.1-0.9,40.2-8.6,59.2-16.8c5-2.2,10.2-4.1,15.3-6c2.7-1,5.4-1.5,8.3-0.9
		c2.5,0.5,5.1,1.1,5.9,3.9c0.8,3-1.4,4.8-3.1,6.9c-13.7,17.2-33.5,23.8-53,31c-22.4,8.3-44.2,18.6-68.5,21.1
		c-16.2,1.7-32.4,3.5-48.7,4.9c-31.3,2.8-62.6,6.6-94.2,6.9c-21.5,0.2-43-0.2-64.4-1.7c-21.6-1.5-33.6-13.9-40.1-33.3
		c-4.4-13.2-6.5-26.8-8.8-40.4c-5-29.2-9.6-58.5-10.7-88.2c-0.5-12.8,4.5-19.1,17.3-20c5.3-0.4,10.7,0,16-0.1
		c10.6-0.3,14.3-6.1,10.4-15.9c-1.1-2.7-3.3-3-5.7-2.9c-5.8,0-11.7,0.4-17.5,0.2c-9.2-0.4-17.5-2.5-21.9-11.9
		c-1.4-3.1-4.1-5.4-7.7-5.8c-6.6-0.7-9.9-5.2-12.1-10.6c-2.5-6.3-6.4-11.6-10.5-16.9c-8.2-10.9-16-22.1-22.4-34.2
		c-3.9-7.4-3-11.5,2.9-17.5c8-8.2,18.4-10.8,29.2-10.8c18.8-0.1,37.6,0.4,56,5.5c12.4,3.4,22.9,9.8,30.9,20.1
		c1.4,1.8,3.2,3.4,4.9,4.9c2.4,2.2,5.2,2.1,7.8,0.4c2.6-1.8,3.5-4.2,1.9-7.3c-1.1-2.2-1.9-4.6-2.8-6.9c5.2-3.5,8.9-9.2,15.2-11.3
		c4.7,2.2,9.2,4.5,14,6.4c4.7,1.9,7,5.3,7.7,10.2c0.2,1.5-0.3,3.4,2.2,3.8c2.2,0.4,3.9,0,5.5-1.4c3.7-3.3,4.9-8.6,2.8-13.2
		c-2.7-6.1-7.3-10.6-12.5-14.6c7.1-3.3,14.3-6.5,22.2-7.2c1.1,0.7,1.3,2,1.5,3c0.9,5.2,4.6,5.6,8.6,4.9c4.2-0.7,6.2-3.6,5.7-7.9
		c-0.2-2-0.6-3.9-0.9-5.8c9.3-0.5,18.1-4,27.3-5.4c5.4-0.8,10.8-1.8,16.2-2.7c1.4,3,1.6,7.1,6.2,7.2c5,0.1,5.8-1.6,5.3-9.2
		c8.4,0.6,16.6-2.1,24.9-1.9c-0.8,3-2.9,5.2-4.5,7.7c-6.1,9.4-5.9,17.1,0.8,26.3c1.4,2,2.7,3.3,5.2,1.5c2-1.5,5-1.8,3.5-5.8
		c-1.9-4.9-2.7-10.1-0.1-15c2.6-4.8,4.9-9.7,6.8-14.9c7.2,0.1,14.3,0.1,21.5,0.2c-1.3,1.5-2.8,2.9-3.7,4.6c-1.1,2.1-3.3,4.1-1.8,6.8
		c2,3.7,4.9,6.6,9.3,6.5c5.8-0.1,10.5-2.3,13.3-7.9c2.1-4.2,0.7-7.2-2.2-10c5.1,0.3,10.2,0.5,15.3,0.8c10.3,2,12.1,0.6,12.7-9.8
		c0.2-2.8,0.4-5.8,2-8.2c7.7-11.5,17-21.3,29.4-27.8c5.7-3,11.1-2.4,16.1,1.9c4.8,4.2,8.7,9,10,15.1c4.3,20.4,2.3,40-9.2,57.9
		c-2.7,4.2-5.3,8.4-5.8,13.6c-0.6,6.1,0.8,7.3,6.6,5.3c1.3-0.4,2.5-0.7,3.8-1.1c1.6,0,3.4-0.4,3.9,2c2.6,12.4,9.3,23,14.3,34.4
		c8.3,18.9,15.6,38,20.1,58.2c1,4.7,2.1,9.3,2.8,14.1c0.6,4,3.5,5.4,7.2,5.5C537.4,237.8,543.2,237.8,549,237.8z M190,169.8
		c-0.3-1.9-0.7-3.9-2-5.8c-9.1-12.4-21-21.3-34.8-27.7c-5.1-2.4-11.6,0.4-13.4,5.3c-1.8,5.1,3.8,18.4,9,20.6
		c11.1,4.8,23.4,6.2,34.4,11.8C186.9,175.8,189.9,173.5,190,169.8z M347.9,251c0-10.3-8-18.8-17.6-18.6c-8.7,0.1-15.8,7.9-15.9,17.3
		c-0.1,10.2,8,19,17.4,18.9C340.7,268.5,347.9,260.6,347.9,251z M494.4,200.2c0-9.7-7.3-17.6-16.1-17.5c-8.1,0.1-14.3,6.8-14.3,15.5
		c0,9.7,7.1,17.4,16.2,17.4C488.3,215.6,494.4,209,494.4,200.2z M421.2,104.5c-0.1,2.8,0.9,5.2,2.2,7.6c2.6,5,5.5,5.7,9.1,1.4
		c3.1-3.7,6.7-8.1,7.5-12.3c1.5-8,6.6-11.5,12.7-14.7c2.5-1.3,3-2.9,1.8-5.2c-2-3.7-4.9-6.7-9.3-6.6c-4.1,0.1-6.5,3.1-8.1,6.6
		c-0.8,1.8-1.2,3.8-1.5,5.8c-0.4,2.7-1.9,4-4.5,4.7C424.3,93.6,421.3,97.4,421.2,104.5z M499.8,237.9c-8.2,0-12.9,3.9-14,11.2
		c-0.5,3.5,1.2,5.7,4.1,5.4c4.3-0.4,7.4,1.2,10.6,3.6c1.8,1.4,4.4,1.4,6.7,0.7c2.2-0.6,4.5-1.2,6.6-2.1c3.8-1.6,7.7-3.2,11.3-5.1
		c2.7-1.5,5.2-4.1,3.8-7.3c-1.4-3.3-5-4.3-8.5-3.6c-1.6,0.3-3,1.3-4.4,2.2c-6.1,3.9-6.1,4-10.1-1.7
		C504.4,239.1,502.6,237.6,499.8,237.9z M208,142.1c0.1,6.5,0.3,6.8,5.2,11.6c2.1,2.1,4.3,4.2,6.1,6.5c4.9,6.2,9.3,7.1,16.2,3.2
		c1.1-0.6,2.2-1.1,2-2.5c-0.8-6.1-1.3-12.9-7.3-16.1c-4.6-2.5-9-5.3-13.5-8C211.3,133.4,207.9,135.7,208,142.1z M470.6,240.2
		c-0.5-3.6-2.5-6.5-6.6-6.4c-5.5,0.2-9.5-1.7-12.3-6.4c-0.3-0.5-0.9-0.9-1.5-1.3c-1.4-1-2.8-1.9-4.6-1.1c-2,0.8-2.3,2.7-2.4,4.6
		c-0.5,8.3,7.8,18.6,16,19.8C464.5,250.1,470.6,245.4,470.6,240.2z M291.3,100.1c0.3,7.8,4.5,13.8,9.7,19c2.1,2.1,5.3,1.3,7.8-0.6
		c2.6-2.1,1.1-4.1-0.3-6c-3.6-4.8-5-10.4-6.2-16.1c-0.5-2.4-0.9-5.5-3.9-5.7c-2.9-0.2-4.4,2.6-6,4.7
		C291.5,96.7,291.2,98.4,291.3,100.1z M286.2,138.2c0-0.9,0-1.6,0-2.3c0.2-5.6-3.3-9.5-9-10.2c-2.5-0.3-4.3,0.9-5.4,2.9
		c-1.1,2-2.8,4.1-1,6.4c3.5,4.4,5.3,9.5,6.1,15.1c0.3,2,0.3,4.8,3.5,4.4c2.8-0.3,4.9-1.7,5-5.1C285.5,145.6,285.9,141.8,286.2,138.2
		z M446.8,113.7c0.5,1.2,1,3.4,2.2,5.1c1,1.4,2.7,2.8,4.4,0.5c2.6-3.4,4.1-7.2,4.5-11.4c0.2-2.1-0.6-3.6-3.1-3.5
		C451.5,104.5,446.8,109.4,446.8,113.7z M383.5,106.5c0.2,1.6,0.3,4,1,6.2c0.9,2.8,3.1,4.1,6.1,4.3c2,0.1,3.3-1,3.8-2.6
		c0.8-2.5,0-4.6-2.3-5.9c-1.5-0.8-1.5-2.5-2.3-3.7c-1.2-1.7-3.1-1.8-4.9-1.7C383.1,103.3,383.4,104.7,383.5,106.5z"/>
	<path fill="#30110B" d="M483.2,123.6c-1.3,0.4-2.6,0.6-3.8,1.1c-5.7,1.9-7.2,0.8-6.6-5.3c0.5-5.1,3.1-9.3,5.8-13.6
		c11.4-18,13.5-37.5,9.2-57.9c-1.3-6.2-5.2-11-10-15.1c-5.1-4.4-10.4-5-16.1-1.9c-12.4,6.5-21.7,16.4-29.4,27.8
		c-1.6,2.4-1.8,5.3-2,8.2c-0.6,10.4-2.4,11.8-12.7,9.8c0.1-5.3,0.3-10.7,0.4-16c0,0,0.2-0.3,0.2-0.3l-0.2-0.4
		c1.1-10.5,7.5-17.6,15.6-23.3c10.8-7.7,21.9-15.1,33-22.4c8.2-5.4,16.5-3.1,21.5,5.6c6.4,11.2,8,23.9,10.9,36.1
		c1.7,7.1,2.9,14.4,2.7,21.7c-0.3,11.2-4.2,21-10.9,30C487.4,112.4,484,117.4,483.2,123.6z"/>
	<path fill="#30110B" d="M237.2,100.7c5.1,4.1,9.7,8.6,12.5,14.6c2.1,4.6,0.9,9.9-2.8,13.2c-1.6,1.4-3.4,1.8-5.5,1.4
		c-2.5-0.4-1.9-2.3-2.2-3.8c-0.7-4.8-3-8.3-7.7-10.2c-4.8-1.9-9.3-4.3-14-6.4c-3.2-7.3-0.1-11.9,7.9-11.7
		C229.5,98,233.3,99.4,237.2,100.7z"/>
	<path fill="#30110B" d="M365.9,75.6c-1.9,5.1-4.2,10.1-6.8,14.9c-2.7,4.9-1.8,10.1,0.1,15c1.6,4-1.5,4.3-3.5,5.8
		c-2.5,1.8-3.8,0.5-5.2-1.5c-6.7-9.2-6.9-16.8-0.8-26.3c1.6-2.5,3.7-4.7,4.5-7.7c0.6-1.1,1.4-2.2,1.8-3.5c1-2.8,1.7-5.9,5.9-4.4
		C365.6,69.2,366.8,71.9,365.9,75.6z"/>
	<path fill="#30110B" d="M402.3,75.8c2.9,2.9,4.3,5.8,2.2,10c-2.8,5.7-7.5,7.9-13.3,7.9c-4.4,0.1-7.3-2.8-9.3-6.5
		c-1.5-2.7,0.7-4.7,1.8-6.8c0.9-1.7,2.4-3.1,3.7-4.6C392.3,72.5,397.3,72.4,402.3,75.8z"/>
	<path fill="#30110B" d="M274.3,87.8c0.3,1.9,0.7,3.9,0.9,5.8c0.4,4.3-1.6,7.2-5.7,7.9c-4,0.7-7.7,0.3-8.6-4.9
		c-0.2-1.1-0.3-2.3-1.5-3c0-2.3-0.5-4.7,0-6.9c0.7-2.9,2.3-5.8,5.5-6.4c3.1-0.6,5.3,1.5,7.1,3.7C272.9,85.1,273.5,86.5,274.3,87.8z"
		/>
	<path fill="#30110B" d="M329.2,77.8c0.5,7.6-0.4,9.3-5.3,9.2c-4.6-0.1-4.8-4.2-6.2-7.2c-0.2-1.8-0.4-3.6-0.7-5.4
		c-0.4-2.2-0.1-4.1,2.1-5c2.1-0.9,4.4-0.6,5.8,1.3C326.6,72.8,327.8,75.4,329.2,77.8z"/>
	<path fill="#FCAE97" d="M418.1,59.9l0.2,0.4c0,0-0.2,0.3-0.2,0.3c-0.1-0.2-0.2-0.4-0.3-0.6C417.8,60,417.9,59.9,418.1,59.9z"/>
	<path fill="#FEFEFE" d="M378.3,554.4c-21,0.4-40.7-6.1-60.6-11.2c-10.2-2.6-20-6.2-29.3-11.2c-9.5-5.1-16-12.8-21.4-21.8
		c-2.4-4-4.7-8.1-7.5-11.8c-9.1-12-22.4-10.4-28.3,3.4c-1.3,2.9-2.6,5.8-3.6,8.8c-3.5,10.6-11.3,16-21.9,18.2
		c-13.7,2.9-27.5,2.1-41.3,0.5c-3.3-0.4-4.3-1.8-4.6-5c-2-24.1-4.6-48.1-5.1-72.3c-0.2-8.2-0.5-16.4-2.8-24.2
		c-0.9-3,0.5-3.4,2.7-3.9c7.3-1.6,14.5-1.3,21.9-0.8c52.4,3.9,104.8,6.3,157.2,1.6c41.2-3.7,81.1-13.1,120.1-26.4
		c15.9-5.4,31.6-11.4,46.8-18.6c2.7-1.3,3.9,0,5.6,1.4c15,12.5,25.8,28.2,34.1,45.7c1.9,4.1,3.7,8.2,5.6,12.2
		c1.1,2.3,0.5,3.5-1.8,4.6c-5.4,2.7-10.5,5.7-15.9,8.4c-5.7,2.9-10.8,6.6-14.9,11.5c-4.2,5.1-9.9,7.1-16.4,6.9
		c-8.1-0.3-16,0.5-23.7,3c-11.5,3.7-21.3,0-30.2-7.1c-2.7-2.1-5.1-4.2-8.9-3c-2.1,0.7-3.3-1.1-4.6-2.4c-3.3-3.3-6.4-6.8-9.8-10
		c-3.3-3.1-7.2-3.6-10.9-0.6c-3.4,2.8-1.7,6.3-0.1,9.1c8.4,14.4,19.7,24.6,37.7,24.3c5.3-0.1,10.7,0.1,16,0.4
		c9.5,0.5,14.8,6.3,17.4,14.7c2,6.7,2.5,13.8,2.1,20.8c-0.2,3.6-1.1,6.8-4.9,8.6C445.7,543.3,413.2,553.7,378.3,554.4z"/>
	<path fill="#FFFFFF" d="M774,685.6c-0.2-4.2,0.9-9,3.2-13.6c5.9-11.9,18.7-14.9,29.9-7c13.1,9.3,19.4,29,13.9,44.2
		c-5,13.9-19.1,18.3-31.1,9.7C780.3,712,774,699.3,774,685.6z"/>
	<path fill="#FCAE97" d="M600.1,253.3c-12.9-3.1-15.6-0.6-13.7,12.5c0.1,0.7,0.2,1.3,0.3,2c1.3,9.5,5.2,11.5,15,7.9
		c2,12.7-9.5,25-22,23.5c-14.7-1.8-26.5-14.8-27.4-30.4c-0.3-4.6-0.1-9.3,0.8-13.9c2.5-12.4,9.9-18.2,22.5-17.3
		C587.7,238.4,595.2,243.2,600.1,253.3z M581.5,276.2c0.2-5.2-2.4-9.2-5.8-12.8c-3.9-4.1-8.5-3.6-11.4,1.3
		c-3.4,5.8-1.6,11.2,1.8,16.3c2.3,3.3,5,6,9.5,4.6C580,284.1,581.3,280.4,581.5,276.2z"/>
	<path fill="#FCAE97" d="M506.2,513.1c-2.5-0.2-5-0.2-7.4-0.7c-2.7-0.6-5-2-4.7-5.4c0.4-4.4-1.8-7.6-4.6-10.6c-4.2-4.6-4-8,1.3-11.3
		c7-4.4,14.7-6.8,23.1-6.4c6.8,0.4,12.2,6,14.1,14.1c1.8,7.7-0.5,13.2-6.9,17C517.3,512.1,513.5,512.9,506.2,513.1z"/>
	<path fill="#FEFEFE" d="M540.4,405.1c16.2,2.6,30,6.5,39.7,18.9c4.1,5.3,6.9,11.3,10,17.2c1.5,2.8,0.2,3.7-2.3,3.7
		c-4.7-0.1-9.3-0.3-14-0.5c-2.7-0.1-5.5-0.6-7.9,0.6c-4,1.9-5.8,0.2-7.2-3.2c-0.4-0.9-1-1.8-1.2-2.7
		C555.5,426.6,550.2,415.5,540.4,405.1z"/>
	<path fill="#FEFEFE" d="M540.8,492.9c-4.2,0-5.7-2.2-3.5-5.7c5.6-8.9,13.7-14.4,24-16.3c4.2-0.7,5.7,1.5,4.2,5.2
		C562.6,483.2,548.3,492.9,540.8,492.9z"/>
	<path fill="#FCAE97" d="M623.1,473.3c0.1,3.6-3.3,6-9.2,7.1c-4.2,0.8-4-2.3-4.8-4.6c-0.8-2.4-1.6-4.7-2.2-7.1
		c-0.5-1.9-2.4-3.8,0.2-5.7c3.8-2.8,7.9-4.1,12.6-2.9c3,0.7,2.2,3.3,2.5,5.3C622.6,468.1,622.8,470.7,623.1,473.3z"/>
	<path fill="#30110B" d="M190,169.8c-0.1,3.7-3.2,6-6.8,4.2c-11-5.5-23.2-7-34.4-11.8c-5.2-2.2-10.8-15.5-9-20.6
		c1.7-4.9,8.3-7.7,13.4-5.3c13.8,6.4,25.7,15.3,34.8,27.7C189.3,165.8,189.7,167.9,190,169.8z"/>
	<path fill="#30110B" d="M347.9,251c0,9.6-7.2,17.5-16.1,17.6c-9.4,0.1-17.4-8.7-17.4-18.9c0.1-9.4,7.2-17.1,15.9-17.3
		C339.9,232.2,347.8,240.6,347.9,251z"/>
	<path fill="#30110B" d="M494.4,200.2c0,8.8-6.1,15.4-14.3,15.4c-9,0-16.2-7.7-16.2-17.4c0-8.7,6.2-15.4,14.3-15.5
		C487.1,182.6,494.4,190.6,494.4,200.2z"/>
	<path fill="#30110B" d="M421.2,104.5c0.1-7.1,3-10.9,10.1-12.7c2.5-0.7,4.1-2,4.5-4.7c0.3-2,0.6-4,1.5-5.8c1.6-3.5,4-6.5,8.1-6.6
		c4.4-0.1,7.3,2.9,9.3,6.6c1.2,2.3,0.7,3.9-1.8,5.2c-6.1,3.2-11.2,6.7-12.7,14.7c-0.8,4.2-4.4,8.6-7.5,12.3
		c-3.6,4.3-6.5,3.5-9.1-1.4C422.2,109.7,421.1,107.2,421.2,104.5z"/>
	<path fill="#30110B" d="M499.8,237.9c2.8-0.3,4.7,1.2,6.2,3.4c4.1,5.7,4.1,5.6,10.1,1.7c1.4-0.9,2.9-1.9,4.4-2.2
		c3.5-0.7,7.1,0.4,8.5,3.6c1.4,3.2-1.1,5.8-3.8,7.3c-3.6,2-7.5,3.6-11.3,5.1c-2.1,0.9-4.4,1.4-6.6,2.1c-2.3,0.7-4.9,0.6-6.7-0.7
		c-3.2-2.4-6.3-4-10.6-3.6c-2.9,0.3-4.6-2-4.1-5.4C486.9,241.8,491.6,237.8,499.8,237.9z"/>
	<path fill="#30110B" d="M208,142.1c-0.1-6.4,3.3-8.7,8.8-5.4c4.5,2.7,8.8,5.5,13.5,8c6,3.2,6.5,10,7.3,16.1c0.2,1.4-0.9,1.9-2,2.5
		c-7,3.9-11.3,3-16.2-3.2c-1.8-2.3-4-4.5-6.1-6.5C208.3,148.9,208.1,148.6,208,142.1z"/>
	<path fill="#30110B" d="M470.6,240.2c0,5.2-6.1,9.9-11.3,9.1c-8.2-1.2-16.5-11.5-16-19.8c0.1-1.9,0.5-3.7,2.4-4.6
		c1.7-0.8,3.2,0.1,4.6,1.1c0.5,0.4,1.2,0.8,1.5,1.3c2.8,4.7,6.8,6.5,12.3,6.4C468.1,233.7,470.1,236.6,470.6,240.2z"/>
	<path fill="#30110B" d="M291.3,100.1c-0.1-1.7,0.1-3.5,1.1-4.8c1.5-2.1,3.1-4.9,6-4.7c3,0.2,3.4,3.4,3.9,5.7
		c1.2,5.7,2.6,11.3,6.2,16.1c1.4,1.9,2.9,3.9,0.3,6c-2.4,1.9-5.7,2.7-7.8,0.6C295.9,113.9,291.6,107.9,291.3,100.1z"/>
	<path fill="#30110B" d="M286.2,138.2c-0.2,3.6-0.6,7.4-0.7,11.2c-0.1,3.4-2.2,4.8-5,5.1c-3.2,0.4-3.2-2.4-3.5-4.4
		c-0.7-5.6-2.5-10.6-6.1-15.1c-1.9-2.3-0.2-4.5,1-6.4c1.1-2,2.9-3.2,5.4-2.9c5.6,0.6,9.1,4.6,9,10.2
		C286.1,136.6,286.2,137.3,286.2,138.2z"/>
	<path fill="#30110B" d="M446.8,113.7c0-4.3,4.6-9.2,8-9.3c2.5-0.1,3.3,1.4,3.1,3.5c-0.4,4.2-1.9,8.1-4.5,11.4
		c-1.7,2.3-3.5,0.9-4.4-0.5C447.9,117.1,447.3,114.9,446.8,113.7z"/>
	<path fill="#30110B" d="M383.5,106.5c-0.1-1.9-0.4-3.3,1.3-3.4c1.8-0.2,3.7,0,4.9,1.7c0.8,1.2,0.9,2.9,2.3,3.7
		c2.3,1.3,3.1,3.5,2.3,5.9c-0.5,1.6-1.8,2.7-3.8,2.6c-3-0.2-5.2-1.5-6.1-4.3C383.8,110.5,383.7,108.1,383.5,106.5z"/>
	<path fill="#30110B" d="M444,615.8c-7.8,0.5-15.8-0.4-23-4.4c-5.3-3-9.8-7.4-9.2-14c0.5-5.8,4.7-9.4,10-11.1
		c5.4-1.7,10.6,0.2,15.5,2.1c7.5,3,14.5,2.7,20.7-2.7c5.9-5.1,20.1-1.7,22.2,5.9c1.2,4.3-0.4,7.5-2.7,10.3
		c-6.8,8.4-15.6,13.3-26.6,13.8C448.7,615.9,446.5,615.8,444,615.8z"/>
	<path fill="#30110B" d="M184.1,779c-0.1-18.1,14.5-32.4,33.4-32.5c19-0.1,34.3,14.1,34.5,32.2c0.2,17.7-15.5,32.8-34.1,32.7
		C199.2,811.4,184.2,797,184.1,779z M218.3,790.4c6.8,0,12.8-5.4,12.7-11.5c-0.1-6-5.8-11.1-12.5-11.1c-7-0.1-12.7,5.1-12.6,11.4
		C205.9,785.3,211.5,790.4,218.3,790.4z"/>
	<path fill="#30110B" d="M656.9,802.7c-18.7,0-33.8-14.4-33.8-32.2c-0.1-18.1,15-32.7,33.9-32.7c18.7,0,34,14.8,34,32.8
		C691,788.1,675.5,802.7,656.9,802.7z M657.2,781.7c7.2,0.1,12.7-4.9,12.6-11.3c-0.1-6.1-5.7-11.1-12.4-11.1
		c-6.8,0-12.4,4.9-12.6,10.9C644.6,776.6,650.1,781.6,657.2,781.7z"/>
	<path fill="#30110B" d="M581.5,276.2c-0.2,4.3-1.5,7.9-5.9,9.4c-4.5,1.5-7.2-1.3-9.5-4.6c-3.5-5.1-5.2-10.4-1.8-16.3
		c2.9-4.9,7.5-5.5,11.4-1.3C579,267,581.7,270.9,581.5,276.2z"/>
</g>
</svg>
